<?xml version="1.0" encoding="UTF-8"?>
<svg width="128" height="128" viewBox="0 0 128 128" xmlns="http://www.w3.org/2000/svg" fill="none">

  <!-- Background -->
  <rect x="8" y="16" width="52" height="80" rx="8" fill="currentColor" opacity="0.15"/>
  <rect x="68" y="16" width="52" height="80" rx="8" fill="currentColor" opacity="0.15"/>

  <!-- Divider line -->
  <line x1="64" y1="20" x2="64" y2="108" stroke="currentColor" stroke-width="4" stroke-linecap="round"/>

  <!-- Left side (removed content) -->
  <rect x="20" y="36" width="28" height="6" rx="3" fill="currentColor"/>
  <rect x="20" y="52" width="20" height="6" rx="3" fill="currentColor"/>
  <rect x="20" y="68" width="28" height="6" rx="3" fill="currentColor"/>

  <!-- Minus symbol -->
  <rect x="28" y="86" width="12" height="4" rx="2" fill="currentColor"/>

  <!-- Right side (added content) -->
  <rect x="80" y="36" width="28" height="6" rx="3" fill="currentColor"/>
  <rect x="80" y="52" width="20" height="6" rx="3" fill="currentColor"/>
  <rect x="80" y="68" width="28" height="6" rx="3" fill="currentColor"/>

  <!-- Plus symbol -->
  <rect x="92" y="82" width="12" height="4" rx="2" fill="currentColor"/>
  <rect x="96" y="78" width="4" height="12" rx="2" fill="currentColor"/>

</svg>
